<svg xmlns="http://www.w3.org/2000/svg" xmlns:xlink="http://www.w3.org/1999/xlink" width="1600" height="1020" viewBox="0 0 1600 1020"><defs/><rect width="1600" height="1020" fill="#ffffff"/><rect x="325" y="120" width="300" height="145" fill="#ffffff" stroke="#8795a6" stroke-width="1.3" pointer-events="none"/><rect x="325" y="120" width="5" height="145" fill="#ff9900" stroke="none" pointer-events="none"/><g fill="#232F3E" font-family="Arial" font-weight="bold" pointer-events="none" font-size="32px"><text x="40" y="64">x402 | Agent payment and content delivery</text></g><g fill="#526274" font-family="Arial" pointer-events="none" font-size="18px"><text x="40" y="103">Wallet authorization / HTTP 402 challenge / signed retry / verification and settlement / content delivery</text></g><rect x="55" y="145" width="190" height="108" rx="6.48" ry="6.48" fill="#f4f6f8" stroke="#aab7c4" stroke-width="1.3" pointer-events="none"/><g fill="#232F3E" font-family="Arial" font-weight="bold" pointer-events="none" font-size="18px"><text x="69" y="181">Buyer agent</text></g><g fill="#526274" font-family="Arial" pointer-events="none" font-size="14px"><text x="69" y="216.5">Wallet + spending cap</text><text x="69" y="233.5">x402-capable client</text></g><rect x="335" y="145" width="280" height="108" rx="6.48" ry="6.48" fill="white" stroke="#d8e0e8" stroke-width="1.3" pointer-events="none"/><path d="M 349 160 L 393 160 L 393 204 L 349 204 Z" fill="#ed7100" stroke="none" pointer-events="none"/><path d="M 379.28 193.06 L 379.28 189.72 L 381.35 188.89 L 381.35 192.23 Z M 375.83 188.89 L 377.9 189.72 L 377.9 193.06 L 375.83 192.23 Z M 371.69 197.89 L 371.69 194.55 L 373.76 193.72 L 373.76 197.06 Z M 368.24 193.72 L 370.31 194.55 L 370.31 197.89 L 368.24 197.06 Z M 364.1 193.06 L 364.1 189.72 L 366.17 188.89 L 366.17 192.23 Z M 360.65 188.89 L 362.72 189.72 L 362.72 193.06 L 360.65 192.23 Z M 363.41 187.23 L 365 187.87 L 363.41 188.51 L 361.82 187.87 Z M 371 192.06 L 372.59 192.7 L 371 193.34 L 369.41 192.7 Z M 378.59 187.23 L 380.18 187.87 L 378.59 188.51 L 377 187.87 Z M 382.29 187.23 L 378.84 185.85 C 378.68 185.79 378.5 185.79 378.33 185.85 L 374.88 187.23 C 374.62 187.34 374.45 187.59 374.45 187.87 L 374.45 191.96 L 371.26 190.68 C 371.09 190.62 370.91 190.62 370.74 190.68 L 367.55 191.96 L 367.55 187.87 C 367.55 187.59 367.38 187.34 367.12 187.23 L 363.67 185.85 C 363.5 185.79 363.32 185.79 363.16 185.85 L 359.71 187.23 C 359.44 187.34 359.27 187.59 359.27 187.87 L 359.27 192.7 C 359.27 192.98 359.44 193.24 359.71 193.34 L 363.16 194.72 C 363.24 194.75 363.32 194.77 363.41 194.77 C 363.5 194.77 363.58 194.75 363.67 194.72 L 366.86 193.44 L 366.86 197.53 C 366.86 197.81 367.03 198.07 367.29 198.17 L 370.74 199.55 C 370.83 199.58 370.91 199.6 371 199.6 C 371.09 199.6 371.17 199.58 371.26 199.55 L 374.71 198.17 C 374.97 198.07 375.14 197.81 375.14 197.53 L 375.14 193.44 L 378.33 194.72 C 378.42 194.75 378.5 194.77 378.59 194.77 C 378.68 194.77 378.76 194.75 378.84 194.72 L 382.29 193.34 C 382.56 193.24 382.73 192.98 382.73 192.7 L 382.73 187.87 C 382.73 187.59 382.56 187.34 382.29 187.23 Z M 388.25 178.86 C 388.25 182.89 379.36 185.07 371 185.07 C 362.64 185.07 353.75 182.89 353.75 178.86 C 353.75 176.93 355.89 175.24 359.77 174.09 L 360.16 175.41 C 357.06 176.33 355.13 177.65 355.13 178.86 C 355.13 181.14 361.65 183.69 371 183.69 C 380.35 183.69 386.87 181.14 386.87 178.86 C 386.87 177.65 384.94 176.33 381.84 175.41 L 382.23 174.09 C 386.11 175.24 388.25 176.93 388.25 178.86 Z M 371 165.84 L 378.05 168.55 L 371 171.27 L 363.95 168.55 Z M 378.3 179.48 C 377 180.07 374.81 180.74 371.69 180.84 L 371.69 172.48 L 379.28 169.56 L 379.28 177.97 C 379.28 178.63 378.9 179.22 378.3 179.48 Z M 362.72 177.97 L 362.72 169.56 L 370.31 172.48 L 370.31 180.84 C 367.19 180.74 365 180.07 363.7 179.48 C 363.1 179.22 362.72 178.63 362.72 177.97 Z M 363.14 180.74 C 364.66 181.42 367.25 182.23 371 182.23 C 374.75 182.23 377.34 181.42 378.86 180.74 C 379.95 180.26 380.66 179.17 380.66 177.97 L 380.66 168.55 C 380.66 168.27 380.48 168.01 380.22 167.91 L 371.25 164.46 C 371.09 164.4 370.91 164.4 370.75 164.46 L 361.78 167.91 C 361.52 168.01 361.34 168.27 361.34 168.55 L 361.34 177.97 C 361.34 179.17 362.05 180.26 363.14 180.74 Z" fill="#ffffff" stroke="none" pointer-events="none"/><g fill="#232F3E" font-family="Arial" font-weight="bold" pointer-events="none" font-size="16px"><text x="405" y="189">Content API / Fargate</text></g><g fill="#526274" font-family="Arial" pointer-events="none" font-size="14px"><text x="349" y="235.5">Access via CloudFront + ALB</text></g><rect x="750" y="145" width="220" height="108" rx="6.48" ry="6.48" fill="#f4f6f8" stroke="#aab7c4" stroke-width="1.3" pointer-events="none"/><g fill="#232F3E" font-family="Arial" font-weight="bold" pointer-events="none" font-size="18px"><text x="764" y="181">x402 Facilitator</text></g><g fill="#526274" font-family="Arial" pointer-events="none" font-size="14px"><text x="764" y="216.5">Payment verification</text><text x="764" y="233.5">On-chain settlement</text></g><rect x="1115" y="145" width="190" height="108" rx="6.48" ry="6.48" fill="#f4f6f8" stroke="#aab7c4" stroke-width="1.3" pointer-events="none"/><g fill="#232F3E" font-family="Arial" font-weight="bold" pointer-events="none" font-size="18px"><text x="1129" y="181">Base Sepolia</text></g><g fill="#526274" font-family="Arial" pointer-events="none" font-size="14px"><text x="1129" y="225">USDC testnet</text></g><rect x="1355" y="145" width="190" height="108" rx="6.48" ry="6.48" fill="#f4f6f8" stroke="#aab7c4" stroke-width="1.3" pointer-events="none"/><g fill="#232F3E" font-family="Arial" font-weight="bold" pointer-events="none" font-size="18px"><text x="1369" y="181">Publisher wallet</text></g><g fill="#526274" font-family="Arial" pointer-events="none" font-size="14px"><text x="1369" y="225">payTo address</text></g><path d="M 150 270 L 150 820.4" fill="none" stroke="#b7c2ce" stroke-width="1.7" stroke-miterlimit="10" stroke-dasharray="5.1 5.1" pointer-events="none"/><path d="M 150 828.1 L 146.15 820.4 L 153.85 820.4 Z" fill="#b7c2ce" stroke="#b7c2ce" stroke-width="1.7" stroke-miterlimit="10" pointer-events="none"/><path d="M 475 270 L 475 820.4" fill="none" stroke="#b7c2ce" stroke-width="1.7" stroke-miterlimit="10" stroke-dasharray="5.1 5.1" pointer-events="none"/><path d="M 475 828.1 L 471.15 820.4 L 478.85 820.4 Z" fill="#b7c2ce" stroke="#b7c2ce" stroke-width="1.7" stroke-miterlimit="10" pointer-events="none"/><path d="M 860 270 L 860 820.4" fill="none" stroke="#b7c2ce" stroke-width="1.7" stroke-miterlimit="10" stroke-dasharray="5.1 5.1" pointer-events="none"/><path d="M 860 828.1 L 856.15 820.4 L 863.85 820.4 Z" fill="#b7c2ce" stroke="#b7c2ce" stroke-width="1.7" stroke-miterlimit="10" pointer-events="none"/><path d="M 1210 270 L 1210 820.4" fill="none" stroke="#b7c2ce" stroke-width="1.7" stroke-miterlimit="10" stroke-dasharray="5.1 5.1" pointer-events="none"/><path d="M 1210 828.1 L 1206.15 820.4 L 1213.85 820.4 Z" fill="#b7c2ce" stroke="#b7c2ce" stroke-width="1.7" stroke-miterlimit="10" pointer-events="none"/><path d="M 1450 270 L 1450 820.4" fill="none" stroke="#b7c2ce" stroke-width="1.7" stroke-miterlimit="10" stroke-dasharray="5.1 5.1" pointer-events="none"/><path d="M 1450 828.1 L 1446.15 820.4 L 1453.85 820.4 Z" fill="#b7c2ce" stroke="#b7c2ce" stroke-width="1.7" stroke-miterlimit="10" pointer-events="none"/><path d="M 150 302 L 465.4 302" fill="none" stroke="#147eba" stroke-width="1.7" stroke-miterlimit="10" pointer-events="none"/><path d="M 473.1 302 L 465.4 305.85 L 465.4 298.15 Z" fill="#147eba" stroke="#147eba" stroke-width="1.7" stroke-miterlimit="10" pointer-events="none"/><g fill="#147EBA" font-family="Arial" pointer-events="none" text-anchor="middle" font-size="13px"><text x="312.5" y="291">1  GET /agent/v1/articles/{slug}/paid</text></g><path d="M 475 365 L 159.6 365" fill="none" stroke="#ed7100" stroke-width="1.7" stroke-miterlimit="10" pointer-events="none"/><path d="M 151.9 365 L 159.6 361.15 L 159.6 368.85 Z" fill="#ed7100" stroke="#ed7100" stroke-width="1.7" stroke-miterlimit="10" pointer-events="none"/><g fill="#ED7100" font-family="Arial" pointer-events="none" text-anchor="middle" font-size="13px"><text x="312.5" y="354">2  HTTP 402 + PAYMENT-REQUIRED</text></g><path d="M 150 472 L 465.4 472" fill="none" stroke="#ed7100" stroke-width="1.7" stroke-miterlimit="10" pointer-events="none"/><path d="M 473.1 472 L 465.4 475.85 L 465.4 468.15 Z" fill="#ed7100" stroke="#ed7100" stroke-width="1.7" stroke-miterlimit="10" pointer-events="none"/><g fill="#ED7100" font-family="Arial" pointer-events="none" text-anchor="middle" font-size="13px"><text x="312.5" y="461">3  Retry with PAYMENT-SIGNATURE</text></g><path d="M 475 532 L 850.4 532" fill="none" stroke="#ed7100" stroke-width="1.7" stroke-miterlimit="10" pointer-events="none"/><path d="M 858.1 532 L 850.4 535.85 L 850.4 528.15 Z" fill="#ed7100" stroke="#ed7100" stroke-width="1.7" stroke-miterlimit="10" pointer-events="none"/><g fill="#ED7100" font-family="Arial" pointer-events="none" text-anchor="middle" font-size="13px"><text x="667.5" y="521">4  Verify signature and payment terms</text></g><path d="M 475 597 L 850.4 597" fill="none" stroke="#ed7100" stroke-width="1.7" stroke-miterlimit="10" pointer-events="none"/><path d="M 858.1 597 L 850.4 600.85 L 850.4 593.15 Z" fill="#ed7100" stroke="#ed7100" stroke-width="1.7" stroke-miterlimit="10" pointer-events="none"/><g fill="#ED7100" font-family="Arial" pointer-events="none" text-anchor="middle" font-size="13px"><text x="667.5" y="586">5  Submit settlement</text></g><path d="M 860 653 L 1200.4 653" fill="none" stroke="#ed7100" stroke-width="1.7" stroke-miterlimit="10" pointer-events="none"/><path d="M 1208.1 653 L 1200.4 656.85 L 1200.4 649.15 Z" fill="#ed7100" stroke="#ed7100" stroke-width="1.7" stroke-miterlimit="10" pointer-events="none"/><g fill="#ED7100" font-family="Arial" pointer-events="none" text-anchor="middle" font-size="13px"><text x="1035" y="642">6  Broadcast USDC transfer</text></g><path d="M 1210 710 L 1440.4 710" fill="none" stroke="#ed7100" stroke-width="1.7" stroke-miterlimit="10" pointer-events="none"/><path d="M 1448.1 710 L 1440.4 713.85 L 1440.4 706.15 Z" fill="#ed7100" stroke="#ed7100" stroke-width="1.7" stroke-miterlimit="10" pointer-events="none"/><g fill="#ED7100" font-family="Arial" pointer-events="none" text-anchor="middle" font-size="13px"><text x="1330" y="699">7  Credit payTo wallet</text></g><path d="M 860 759 L 484.6 759" fill="none" stroke="#ed7100" stroke-width="1.7" stroke-miterlimit="10" pointer-events="none"/><path d="M 476.9 759 L 484.6 755.15 L 484.6 762.85 Z" fill="#ed7100" stroke="#ed7100" stroke-width="1.7" stroke-miterlimit="10" pointer-events="none"/><g fill="#ED7100" font-family="Arial" pointer-events="none" text-anchor="middle" font-size="13px"><text x="667.5" y="748">8  Settlement result / transaction hash</text></g><path d="M 475 816 L 159.6 816" fill="none" stroke="#147eba" stroke-width="1.7" stroke-miterlimit="10" pointer-events="none"/><path d="M 151.9 816 L 159.6 812.15 L 159.6 819.85 Z" fill="#147eba" stroke="#147eba" stroke-width="1.7" stroke-miterlimit="10" pointer-events="none"/><g fill="#147EBA" font-family="Arial" pointer-events="none" text-anchor="middle" font-size="13px"><text x="312.5" y="805">9  200 + content + PAYMENT-RESPONSE</text></g><rect x="50" y="393" width="200" height="54" rx="3.24" ry="3.24" fill="#fff5e8" stroke="#f3c793" stroke-width="1.3" pointer-events="none"/><g fill="#232F3E" font-family="Arial" pointer-events="none" text-anchor="middle" font-size="13px"><text x="150" y="417.5">Check network / token</text><text x="150" y="433.5">Sign within budget</text></g><rect x="335" y="857" width="1210" height="98" rx="5.88" ry="5.88" fill="#f7f9fb" stroke="#d8e0e8" stroke-width="1.3" pointer-events="none"/><g fill="#232F3E" font-family="Arial" font-weight="bold" pointer-events="none" font-size="18px"><text x="355" y="887">MEASURE THE SEQUENCE  /  Request, challenge, signature, settlement and delivery</text></g><g fill="#526274" font-family="Arial" pointer-events="none" font-size="15px"><text x="355" y="928">The API records payment and delivery events. Admin reporting combines these with aggregated CloudFront traffic.</text></g><g fill="#526274" font-family="Arial" pointer-events="none" font-size="14px"><text x="45" y="996.5">Base Sepolia testnet USDC, default 0.002 USDC. Public research remains open; payment applies to the dedicated machine endpoint.</text></g><g fill="#232F3E" font-family="Arial" font-weight="bold" pointer-events="none" font-size="12px"><text x="345" y="136">AWS Cloud</text></g></svg>
